<?xml version="1.0" encoding="UTF-8"?>
<svg version="1.1" xmlns="http://www.w3.org/2000/svg" width="500" height="141">
<path d="M0 0 C1.42892578 -0.07734375 1.42892578 -0.07734375 2.88671875 -0.15625 C14.05574573 1.98331275 21.50671409 11.35988205 28.93432617 19.27929688 C30.33479314 20.76458994 31.75052479 22.23405286 33.16796875 23.703125 C34.40003052 25.01265137 34.40003052 25.01265137 35.65698242 26.34863281 C38.79107964 28.88772123 41.38496523 29.69927699 45.3125 30.5 C48.13757759 29.99371369 49.7492822 28.93540197 52.3125 27.5 C53.91670518 24.29158965 53.78712745 20.9806013 53.3125 17.5 C51.97916667 14.83333333 51.97916667 14.83333333 49.3125 13.5 C44.13292581 12.73536178 44.13292581 12.73536178 39.4609375 14.62890625 C37.61215628 16.12412295 37.61215628 16.12412295 35.3125 18.5 C31.49565774 16.94499019 29.12054268 14.46404505 26.3125 11.5 C28.12017608 6.61927458 32.07036966 3.55837402 36.6875 1.37890625 C43.14233407 -0.78231052 49.52814367 -0.23637044 55.6875 2.5625 C61.563268 5.87344863 64.18579317 9.73444687 66.6875 15.875 C67.84340342 22.57923985 67.27347608 27.4806839 63.625 33.3125 C59.11351797 39.4344638 54.33301787 42.09478187 46.88671875 43.296875 C38.72997337 43.94050286 34.16236422 40.89557993 28.00976562 35.84863281 C23.55538029 31.96999533 19.43269801 27.79043694 15.3125 23.5625 C13.64803309 21.86372729 11.98147524 20.16699992 10.3125 18.47265625 C9.590625 17.73281494 8.86875 16.99297363 8.125 16.23071289 C5.0871103 13.32990469 2.548247 13.08388555 -1.640625 13.16796875 C-3.99163057 13.41193601 -3.99163057 13.41193601 -6.75 15.4375 C-9.43918538 19.68814786 -8.73526049 22.7383954 -7.6875 27.5 C-2.65667796 30.17347296 -2.65667796 30.17347296 2.9375 29.9375 C6.2874247 28.51068022 8.6292548 26.93931382 11.3125 24.5 C13.9525 26.81 16.5925 29.12 19.3125 31.5 C16.53883869 37.04732261 12.73576908 40.23619279 6.87890625 42.3984375 C0.21811077 43.99869102 -5.44887761 43.54681966 -11.62890625 40.5625 C-16.68029143 37.42038568 -19.77205281 33.10289399 -21.6875 27.5 C-22.64208146 21.60177312 -22.61670566 16.31811364 -19.5625 11.0625 C-14.5456184 4.2457767 -8.60908915 0.27585866 0 0 Z " fill="#00D99D" transform="translate(224.6875,57.5)"/>
<path d="M0 0 C2.33944736 0.28730055 4.6739143 0.61936779 7 1 C7.84080019 3.41429769 8.67281402 5.83103993 9.5 8.25 C9.73847656 8.93191406 9.97695312 9.61382812 10.22265625 10.31640625 C11.39421287 13.76413003 12 16.31702904 12 20 C12.66 20 13.32 20 14 20 C14.103125 19.05125 14.20625 18.1025 14.3125 17.125 C16.25964733 3.68694097 16.25964733 3.68694097 21 0 C23.9375 -0.4375 23.9375 -0.4375 27 0 C31.05790085 3.11492199 31.99113296 6.39437 33.25 11.25 C33.58515625 12.51328125 33.9203125 13.7765625 34.265625 15.078125 C34.50796875 16.04234375 34.7503125 17.0065625 35 18 C37.29230787 13.76332385 38.5663067 9.26078561 40 4.6796875 C41 2 41 2 43 0 C46 -0.3125 46 -0.3125 49 0 C51.30322579 3.45483869 51.13597643 4.11662645 50.625 8.0625 C50.01944977 13.40559029 49.89512524 18.62808154 50 24 C49.01 23.01 48.02 22.02 47 21 C46.74605469 21.89203125 46.49210937 22.7840625 46.23046875 23.703125 C45.88628906 24.87359375 45.54210937 26.0440625 45.1875 27.25 C44.85105469 28.41015625 44.51460937 29.5703125 44.16796875 30.765625 C43.09020493 33.75020173 42.13686795 35.68644012 40 38 C36.88542386 39.22943795 35.51183758 39.19498574 32.375 38 C29.26597193 35.3818711 28.39277282 32.78038336 27 29 C26.34711373 27.65986503 25.68774405 26.32258472 25 25 C22.32064917 27.67935083 20.99243809 30.01959222 19.625 33.5625 C18 37 18 37 16.125 38.5 C13.28229544 39.16887166 11.74752602 39.03032226 9 38 C4.00490913 32.62903851 2.63755055 26.39498365 0.625 19.5 C0.24472656 18.27667969 -0.13554687 17.05335937 -0.52734375 15.79296875 C-0.87667969 14.61347656 -1.22601563 13.43398437 -1.5859375 12.21875 C-1.9061084 11.14560547 -2.2262793 10.07246094 -2.55615234 8.96679688 C-3.06231538 5.58346728 -2.58278466 3.98962974 -1 1 C-0.67 0.67 -0.34 0.34 0 0 Z M48 15 C49 18 49 18 49 18 Z M24 18 C23.67 19.65 23.34 21.3 23 23 C23.66 22.34 24.32 21.68 25 21 C24.67 20.01 24.34 19.02 24 18 Z " fill="#00DA9E" transform="translate(152,60)"/>
<path d="M0 0 C3.4763382 0.35472839 3.92552037 0.72186603 6.0625 3.3125 C7.0456543 5.16601562 7.0456543 5.16601562 7.88671875 7.21875 C8.19287109 7.96253906 8.49902344 8.70632812 8.81445312 9.47265625 C9.12318359 10.24480469 9.43191406 11.01695313 9.75 11.8125 C10.07033203 12.58464844 10.39066406 13.35679688 10.72070312 14.15234375 C13.0625 19.91446229 13.0625 19.91446229 13.0625 23.3125 C13.7225 23.3125 14.3825 23.3125 15.0625 23.3125 C15.20945312 22.72984375 15.35640625 22.1471875 15.5078125 21.546875 C17.38288886 14.69314762 19.92494708 5.45005292 25.0625 0.3125 C30.28098739 -0.14128151 30.28098739 -0.14128151 33 1.4375 C34.60389633 4.2679053 33.74617195 6.18350296 33.0625 9.3125 C31.4915553 13.7893848 29.60010875 18.13202008 27.75 22.5 C27.26337891 23.68787109 26.77675781 24.87574219 26.27539062 26.09960938 C25.55706055 27.80407227 25.55706055 27.80407227 24.82421875 29.54296875 C24.39069092 30.57832764 23.95716309 31.61368652 23.51049805 32.68041992 C21.54196324 36.25869909 19.4773041 37.79125638 15.6875 39.1875 C11.81527269 39.37189178 10.28468968 38.53497446 7.0625 36.3125 C4.9294192 32.90063196 3.41867069 29.27116281 1.875 25.5625 C1.45025391 24.58539063 1.02550781 23.60828125 0.58789062 22.6015625 C-0.23460994 20.70328748 -1.0471082 18.80063979 -1.84838867 16.89331055 C-2.78462285 14.67476505 -3.76148527 12.48060861 -4.75 10.28515625 C-6.05609782 7.01561533 -6.15246565 5.58356137 -4.9375 2.3125 C-2.9375 0.3125 -2.9375 0.3125 0 0 Z " fill="#01DA9E" transform="translate(296.9375,59.6875)"/>
<path d="M0 0 C2.46941973 2.36470936 2.97673661 3.82070959 3.41992188 7.23632812 C3.51063793 14.28677991 3.51063793 14.28677991 3.50097656 17.32666016 C3.50000276 19.49385873 3.54166917 21.65752994 3.5859375 23.82421875 C3.59114407 25.20572181 3.5938327 26.58723713 3.59375 27.96875 C3.60083984 29.22107422 3.60792969 30.47339844 3.61523438 31.76367188 C3 35 3 35 0.46289062 37.43945312 C-0.34986328 37.95443359 -1.16261719 38.46941406 -2 39 C-4.91517292 37.92598892 -6.77810176 37.22189824 -9 35 C-9.40028418 30.45739722 -9.3290065 25.9003336 -9.31567383 21.34204102 C-9.31251677 19.07454253 -9.3359576 16.8083524 -9.36132812 14.54101562 C-9.36360141 13.10156415 -9.36430448 11.66210916 -9.36328125 10.22265625 C-9.36626221 8.91047119 -9.36924316 7.59828613 -9.37231445 6.24633789 C-9 3 -9 3 -7.66479492 1.07592773 C-5.01723132 -0.63514615 -3.06021876 -0.4462819 0 0 Z " fill="#00DA9F" transform="translate(344,60)"/>
<path d="M0 0 C2.8125 1.375 2.8125 1.375 4.8125 4.375 C4.75 7.375 4.75 7.375 3.8125 10.375 C1.625 12.375 1.625 12.375 -1.1875 13.375 C-4.375 12.75 -4.375 12.75 -7.1875 11.375 C-9.1875 8.375 -9.1875 8.375 -9.125 5.375 C-8.1875 2.375 -8.1875 2.375 -6 0.375 C-3.1875 -0.625 -3.1875 -0.625 0 0 Z " fill="#01DBA1" transform="translate(343.1875,42.625)"/>
<path d="M0 0 C0.66 0 1.32 0 2 0 C2 9.9 2 19.8 2 30 C1.67 30 1.34 30 1 30 C0.67 20.1 0.34 10.2 0 0 Z " fill="#00E0AF" transform="translate(332,64)"/>
<path d="M0 0 C0.33 0 0.66 0 1 0 C1 9.9 1 19.8 1 30 C0.67 30 0.34 30 0 30 C0 20.1 0 10.2 0 0 Z " fill="#00E2B2" transform="translate(348,64)"/>
<path d="M0 0 C0.66 0 1.32 0 2 0 C2.99 2.97 3.98 5.94 5 9 C4.34 9 3.68 9 3 9 C2.01 6.03 1.02 3.06 0 0 Z " fill="#01DB9D" transform="translate(289,67)"/>
<path d="M0 0 C3.63 0 7.26 0 11 0 C11 0.33 11 0.66 11 1 C7.37 1 3.74 1 0 1 C0 0.67 0 0.34 0 0 Z " fill="#00D99A" transform="translate(264,56)"/>
<path d="M0 0 C3.63 0 7.26 0 11 0 C11 0.33 11 0.66 11 1 C7.37 1 3.74 1 0 1 C0 0.67 0 0.34 0 0 Z " fill="#00D998" transform="translate(219,56)"/>
<path d="M0 0 C0.66 1.32 1.32 2.64 2 4 C1.01 5.32 0.02 6.64 -1 8 C-0.67 5.36 -0.34 2.72 0 0 Z " fill="#00D894" transform="translate(204,63)"/>
<path d="M0 0 C0.33 0 0.66 0 1 0 C1 2.64 1 5.28 1 8 C0.67 8 0.34 8 0 8 C0 5.36 0 2.72 0 0 Z " fill="#01DDA0" transform="translate(277,75)"/>
<path d="M0 0 C2.64 0 5.28 0 8 0 C8 0.33 8 0.66 8 1 C5.36 1 2.72 1 0 1 C0 0.67 0 0.34 0 0 Z " fill="#00DB9B" transform="translate(266,71)"/>
<path d="M0 0 C2.64 0 5.28 0 8 0 C8 0.33 8 0.66 8 1 C5.36 1 2.72 1 0 1 C0 0.67 0 0.34 0 0 Z " fill="#00DDA0" transform="translate(221,71)"/>
<path d="M0 0 C0.66 0.66 1.32 1.32 2 2 C1.625 4.125 1.625 4.125 1 6 C0.67 4.02 0.34 2.04 0 0 Z " fill="#02D896" transform="translate(186,72)"/>
<path d="M0 0 C0.33 0 0.66 0 1 0 C1 1.98 1 3.96 1 6 C0.67 6 0.34 6 0 6 C0 4.02 0 2.04 0 0 Z " fill="#00D999" transform="translate(216,76)"/>
<path d="M0 0 C0.66 0 1.32 0 2 0 C2 0.99 2 1.98 2 3 C1.34 3 0.68 3 0 3 C0 2.01 0 1.02 0 0 Z " fill="#03DDA3" transform="translate(164,73)"/>
<path d="M0 0 C1.98 0 3.96 0 6 0 C6 0.33 6 0.66 6 1 C4.02 1 2.04 1 0 1 C0 0.67 0 0.34 0 0 Z " fill="#00CD72" transform="translate(338,58)"/>
<path d="M0 0 C1.98 0 3.96 0 6 0 C6 0.33 6 0.66 6 1 C4.02 1 2.04 1 0 1 C0 0.67 0 0.34 0 0 Z " fill="#00DB9B" transform="translate(173,58)"/>
<path d="M0 0 C1.65 0 3.3 0 5 0 C5 0.33 5 0.66 5 1 C3.35 1 1.7 1 0 1 C0 0.67 0 0.34 0 0 Z " fill="#00D690" transform="translate(271,101)"/>
<path d="M0 0 C1.65 0 3.3 0 5 0 C5 0.33 5 0.66 5 1 C3.35 1 1.7 1 0 1 C0 0.67 0 0.34 0 0 Z " fill="#00D895" transform="translate(263,101)"/>
<path d="M0 0 C0 0.99 0 1.98 0 3 C-0.66 2.67 -1.32 2.34 -2 2 C-1.34 1.34 -0.68 0.68 0 0 Z " fill="#00D896" transform="translate(276,83)"/>
<path d="M0 0 C0.66 0 1.32 0 2 0 C1.67 0.99 1.34 1.98 1 3 C0.67 2.01 0.34 1.02 0 0 Z " fill="#00DCA0" transform="translate(310,78)"/>
<path d="M0 0 C1.65 0 3.3 0 5 0 C5 0.33 5 0.66 5 1 C3.35 1 1.7 1 0 1 C0 0.67 0 0.34 0 0 Z " fill="#00DA99" transform="translate(195,58)"/>
<path d="M0 0 C1.65 0 3.3 0 5 0 C5 0.33 5 0.66 5 1 C3.35 1 1.7 1 0 1 C0 0.67 0 0.34 0 0 Z " fill="#00DA99" transform="translate(152,58)"/>
<path d="M0 0 C4 1 4 1 4 1 Z " fill="#00D897" transform="translate(227,101)"/>
<path d="M0 0 C4 1 4 1 4 1 Z " fill="#00D999" transform="translate(219,101)"/>
<path d="M0 0 C0.99 0.33 1.98 0.66 3 1 C2.01 1 1.02 1 0 1 C0 0.67 0 0.34 0 0 Z " fill="#04D287" transform="translate(240,85)"/>
<path d="M0 0 C0.99 0.33 1.98 0.66 3 1 C2.01 1 1.02 1 0 1 C0 0.67 0 0.34 0 0 Z " fill="#04D48C" transform="translate(261,83)"/>
<path d="M0 0 C0.99 0.33 1.98 0.66 3 1 C2.01 1 1.02 1 0 1 C0 0.67 0 0.34 0 0 Z " fill="#02D691" transform="translate(251,71)"/>
<path d="M0 0 C1 4 1 4 1 4 Z " fill="#02E1B2" transform="translate(349,47)"/>
<path d="M0 0 C1 4 1 4 1 4 Z " fill="#01E2B0" transform="translate(332,47)"/>
<path d="M0 0 C3 1 3 1 3 1 Z " fill="#01D48D" transform="translate(189,99)"/>
<path d="" fill="#07E0AB" transform="translate(0,0)"/>
<path d="" fill="#01DA96" transform="translate(0,0)"/>
<path d="" fill="#02D999" transform="translate(0,0)"/>
<path d="" fill="#00D487" transform="translate(0,0)"/>
<path d="" fill="#00DB9E" transform="translate(0,0)"/>
<path d="" fill="#05DEA5" transform="translate(0,0)"/>
<path d="" fill="#03E0AB" transform="translate(0,0)"/>
<path d="M0 0 C3 1 3 1 3 1 Z " fill="#00DEA6" transform="translate(271,86)"/>
<path d="M0 0 C3 1 3 1 3 1 Z " fill="#00DA9C" transform="translate(265,86)"/>
<path d="M0 0 C3 1 3 1 3 1 Z " fill="#03E0AB" transform="translate(226,86)"/>
<path d="M0 0 C3 1 3 1 3 1 Z " fill="#00D894" transform="translate(220,86)"/>
<path d="" fill="#00DDA2" transform="translate(0,0)"/>
<path d="" fill="#01D181" transform="translate(0,0)"/>
<path d="" fill="#00D78F" transform="translate(0,0)"/>
<path d="" fill="#00DEA9" transform="translate(0,0)"/>
<path d="" fill="#00DDA1" transform="translate(0,0)"/>
<path d="" fill="#00E2B6" transform="translate(0,0)"/>
<path d="" fill="#04DA98" transform="translate(0,0)"/>
<path d="" fill="#00DFA5" transform="translate(0,0)"/>
<path d="" fill="#00D58E" transform="translate(0,0)"/>
<path d="" fill="#02DEA6" transform="translate(0,0)"/>
<path d="" fill="#01D184" transform="translate(0,0)"/>
<path d="" fill="#00D386" transform="translate(0,0)"/>
<path d="" fill="#03DEA3" transform="translate(0,0)"/>
<path d="" fill="#01DB9C" transform="translate(0,0)"/>
<path d="" fill="#01DDA5" transform="translate(0,0)"/>
<path d="" fill="#00D084" transform="translate(0,0)"/>
<path d="" fill="#05DB9F" transform="translate(0,0)"/>
<path d="" fill="#01D790" transform="translate(0,0)"/>
<path d="M0 0 C3 1 3 1 3 1 Z " fill="#00D387" transform="translate(216,57)"/>
<path d="M0 0 C3 1 3 1 3 1 Z " fill="#00DA9B" transform="translate(337,56)"/>
<path d="M0 0 C2 1 2 1 2 1 Z " fill="#00D38A" transform="translate(276,100)"/>
<path d="M0 0 C2 1 2 1 2 1 Z " fill="#00D895" transform="translate(261,100)"/>
<path d="M0 0 C2 1 2 1 2 1 Z " fill="#00E0A9" transform="translate(232,100)"/>
<path d="M0 0 C2 1 2 1 2 1 Z " fill="#00DB9C" transform="translate(216,100)"/>
<path d="M0 0 C2 1 2 1 2 1 Z " fill="#01D388" transform="translate(342,99)"/>
<path d="M0 0 C2 1 2 1 2 1 Z " fill="#00D184" transform="translate(338,99)"/>
<path d="M0 0 C2 1 2 1 2 1 Z " fill="#00DB9C" transform="translate(313,99)"/>
<path d="M0 0 C2 1 2 1 2 1 Z " fill="#01DDA1" transform="translate(307,99)"/>
<path d="M0 0 C2 1 2 1 2 1 Z " fill="#00E1AD" transform="translate(279,99)"/>
<path d="M0 0 C2 1 2 1 2 1 Z " fill="#03DEA5" transform="translate(234,99)"/>
<path d="M0 0 C2 1 2 1 2 1 Z " fill="#00DDA2" transform="translate(184,99)"/>
<path d="M0 0 C2 1 2 1 2 1 Z " fill="#01D792" transform="translate(166,99)"/>
<path d="M0 0 C2 1 2 1 2 1 Z " fill="#01D998" transform="translate(161,99)"/>
<path d="M0 0 C2 1 2 1 2 1 Z " fill="#02D48B" transform="translate(315,98)"/>
<path d="M0 0 C2 1 2 1 2 1 Z " fill="#03DDA2" transform="translate(305,98)"/>
<path d="M0 0 C2 1 2 1 2 1 Z " fill="#02C871" transform="translate(168,98)"/>
<path d="M0 0 C2 1 2 1 2 1 Z " fill="#01DA9D" transform="translate(159,98)"/>
<path d="M0 0 C2 1 2 1 2 1 Z " fill="#01DB9D" transform="translate(282,97)"/>
<path d="M0 0 C2 1 2 1 2 1 Z " fill="#01D48C" transform="translate(237,97)"/>
<path d="M0 0 C2 1 2 1 2 1 Z " fill="#04DEA4" transform="translate(210,97)"/>
<path d="M0 0 C2 1 2 1 2 1 Z " fill="#00C770" transform="translate(254,96)"/>
<path d="" fill="#00D891" transform="translate(0,0)"/>
<path d="" fill="#00DEA4" transform="translate(0,0)"/>
<path d="" fill="#00D383" transform="translate(0,0)"/>
<path d="" fill="#00DB9E" transform="translate(0,0)"/>
<path d="" fill="#03C96B" transform="translate(0,0)"/>
<path d="" fill="#00DEA5" transform="translate(0,0)"/>
<path d="" fill="#00CE7A" transform="translate(0,0)"/>
<path d="" fill="#00DB9E" transform="translate(0,0)"/>
<path d="" fill="#00DB9F" transform="translate(0,0)"/>
<path d="" fill="#00DFAB" transform="translate(0,0)"/>
<path d="" fill="#01DC9F" transform="translate(0,0)"/>
<path d="" fill="#01E0AB" transform="translate(0,0)"/>
<path d="" fill="#02DEA2" transform="translate(0,0)"/>
<path d="" fill="#00D381" transform="translate(0,0)"/>
<path d="" fill="#00D999" transform="translate(0,0)"/>
<path d="M0 0 C2 1 2 1 2 1 Z " fill="#02D895" transform="translate(229,85)"/>
<path d="" fill="#01CE78" transform="translate(0,0)"/>
<path d="" fill="#03DCA0" transform="translate(0,0)"/>
<path d="" fill="#01DB9D" transform="translate(0,0)"/>
<path d="" fill="#00DFAB" transform="translate(0,0)"/>
<path d="" fill="#01E0AA" transform="translate(0,0)"/>
<path d="" fill="#00D081" transform="translate(0,0)"/>
<path d="" fill="#01DFA3" transform="translate(0,0)"/>
<path d="" fill="#00D17B" transform="translate(0,0)"/>
<path d="" fill="#00DDA4" transform="translate(0,0)"/>
<path d="" fill="#01D690" transform="translate(0,0)"/>
<path d="" fill="#00DC9F" transform="translate(0,0)"/>
<path d="M0 0 C2 1 2 1 2 1 Z " fill="#00DCA1" transform="translate(258,77)"/>
<path d="" fill="#02DD9E" transform="translate(0,0)"/>
<path d="" fill="#01D388" transform="translate(0,0)"/>
<path d="" fill="#02E3B3" transform="translate(0,0)"/>
<path d="" fill="#06E0A9" transform="translate(0,0)"/>
<path d="" fill="#01DFA9" transform="translate(0,0)"/>
<path d="M0 0 C2 1 2 1 2 1 Z " fill="#01D58D" transform="translate(230,73)"/>
<path d="" fill="#04E0AA" transform="translate(0,0)"/>
<path d="" fill="#02DD9E" transform="translate(0,0)"/>
<path d="" fill="#00D790" transform="translate(0,0)"/>
<path d="" fill="#01DDA2" transform="translate(0,0)"/>
<path d="" fill="#00CC77" transform="translate(0,0)"/>
<path d="" fill="#01DB9C" transform="translate(0,0)"/>
<path d="" fill="#00DB9B" transform="translate(0,0)"/>
<path d="" fill="#00CE75" transform="translate(0,0)"/>
<path d="" fill="#02E1AE" transform="translate(0,0)"/>
<path d="" fill="#02DCA2" transform="translate(0,0)"/>
<path d="" fill="#00DEA4" transform="translate(0,0)"/>
<path d="" fill="#02DCA0" transform="translate(0,0)"/>
<path d="" fill="#00D487" transform="translate(0,0)"/>
<path d="" fill="#01E4B8" transform="translate(0,0)"/>
<path d="" fill="#06E2B7" transform="translate(0,0)"/>
<path d="" fill="#00DEA5" transform="translate(0,0)"/>
<path d="" fill="#01D384" transform="translate(0,0)"/>
<path d="" fill="#01D07E" transform="translate(0,0)"/>
<path d="" fill="#00DEA7" transform="translate(0,0)"/>
<path d="M0 0 C2 1 2 1 2 1 Z " fill="#00CA6C" transform="translate(253,62)"/>
<path d="" fill="#04D891" transform="translate(0,0)"/>
<path d="M0 0 C2 1 2 1 2 1 Z " fill="#00DB9C" transform="translate(257,59)"/>
<path d="M0 0 C2 1 2 1 2 1 Z " fill="#00DEA4" transform="translate(212,59)"/>
<path d="M0 0 C2 1 2 1 2 1 Z " fill="#00D383" transform="translate(179,59)"/>
<path d="M0 0 C2 1 2 1 2 1 Z " fill="#00D892" transform="translate(326,58)"/>
<path d="M0 0 C2 1 2 1 2 1 Z " fill="#01DB9D" transform="translate(322,58)"/>
<path d="M0 0 C2 1 2 1 2 1 Z " fill="#00DA96" transform="translate(298,58)"/>
<path d="M0 0 C2 1 2 1 2 1 Z " fill="#00DB9A" transform="translate(294,58)"/>
<path d="M0 0 C2 1 2 1 2 1 Z " fill="#01D58B" transform="translate(259,58)"/>
<path d="M0 0 C2 1 2 1 2 1 Z " fill="#00DB9C" transform="translate(214,58)"/>
<path d="M0 0 C2 1 2 1 2 1 Z " fill="#00DDA0" transform="translate(276,57)"/>
<path d="M0 0 C2 1 2 1 2 1 Z " fill="#00DEA3" transform="translate(261,57)"/>
<path d="M0 0 C2 1 2 1 2 1 Z " fill="#00DC9E" transform="translate(231,57)"/>
<path d="M0 0 C2 1 2 1 2 1 Z " fill="#00D790" transform="translate(342,56)"/>
<path d="" fill="#01D892" transform="translate(0,0)"/>
<path d="" fill="#02CA71" transform="translate(0,0)"/>
<path d="" fill="#00D997" transform="translate(0,0)"/>
<path d="" fill="#01D07D" transform="translate(0,0)"/>
<path d="M0 0 C2 1 2 1 2 1 Z " fill="#00DFA7" transform="translate(343,41)"/>
<path d="M0 0 C2 1 2 1 2 1 Z " fill="#00DFA6" transform="translate(337,41)"/>
<path d="M0 0 C2 1 2 1 2 1 Z " fill="#01E6BE" transform="translate(340,40)"/>
<path d="" fill="#12EAC4" transform="translate(0,0)"/>
<path d="" fill="#00DEA3" transform="translate(0,0)"/>
<path d="" fill="#00DDA1" transform="translate(0,0)"/>
<path d="" fill="#00C768" transform="translate(0,0)"/>
<path d="" fill="#00BE53" transform="translate(0,0)"/>
<path d="" fill="#00DFA5" transform="translate(0,0)"/>
<path d="" fill="#00E1AC" transform="translate(0,0)"/>
<path d="" fill="#01DDA0" transform="translate(0,0)"/>
<path d="" fill="#01E0A8" transform="translate(0,0)"/>
<path d="" fill="#00DFA6" transform="translate(0,0)"/>
<path d="" fill="#00DB9A" transform="translate(0,0)"/>
<path d="" fill="#02E9C1" transform="translate(0,0)"/>
<path d="" fill="#00E0A8" transform="translate(0,0)"/>
<path d="" fill="#02E3B0" transform="translate(0,0)"/>
<path d="" fill="#00D897" transform="translate(0,0)"/>
<path d="" fill="#00DC9D" transform="translate(0,0)"/>
<path d="" fill="#00CA73" transform="translate(0,0)"/>
<path d="" fill="#00E2AF" transform="translate(0,0)"/>
<path d="" fill="#00E6B8" transform="translate(0,0)"/>
<path d="" fill="#00E0A6" transform="translate(0,0)"/>
<path d="" fill="#02E3AF" transform="translate(0,0)"/>
<path d="" fill="#01E2AF" transform="translate(0,0)"/>
<path d="" fill="#00E1A9" transform="translate(0,0)"/>
<path d="" fill="#01E3B1" transform="translate(0,0)"/>
<path d="" fill="#01DC9E" transform="translate(0,0)"/>
<path d="" fill="#00CD79" transform="translate(0,0)"/>
<path d="" fill="#00E3B1" transform="translate(0,0)"/>
<path d="" fill="#02E7BD" transform="translate(0,0)"/>
<path d="" fill="#00DC9E" transform="translate(0,0)"/>
<path d="" fill="#03DB9A" transform="translate(0,0)"/>
<path d="" fill="#03E2AC" transform="translate(0,0)"/>
<path d="" fill="#00E2A9" transform="translate(0,0)"/>
<path d="" fill="#00E3B2" transform="translate(0,0)"/>
<path d="" fill="#00DFA1" transform="translate(0,0)"/>
<path d="" fill="#02E0AA" transform="translate(0,0)"/>
<path d="" fill="#03DFA9" transform="translate(0,0)"/>
<path d="" fill="#00DB9B" transform="translate(0,0)"/>
<path d="" fill="#01E1A8" transform="translate(0,0)"/>
<path d="" fill="#00E1AE" transform="translate(0,0)"/>
<path d="" fill="#00DD9E" transform="translate(0,0)"/>
<path d="" fill="#00E0AB" transform="translate(0,0)"/>
<path d="" fill="#00DB99" transform="translate(0,0)"/>
<path d="" fill="#00DEA3" transform="translate(0,0)"/>
<path d="" fill="#01DD9F" transform="translate(0,0)"/>
<path d="" fill="#00E3AD" transform="translate(0,0)"/>
<path d="" fill="#00DFAB" transform="translate(0,0)"/>
<path d="" fill="#00DC9D" transform="translate(0,0)"/>
<path d="" fill="#00E2AF" transform="translate(0,0)"/>
<path d="" fill="#00DFA8" transform="translate(0,0)"/>
<path d="" fill="#00DD9D" transform="translate(0,0)"/>
<path d="" fill="#02DFA8" transform="translate(0,0)"/>
<path d="" fill="#03DEA3" transform="translate(0,0)"/>
<path d="" fill="#01DA99" transform="translate(0,0)"/>
<path d="" fill="#00DEA4" transform="translate(0,0)"/>
<path d="" fill="#0EE5B5" transform="translate(0,0)"/>
<path d="" fill="#00E1A9" transform="translate(0,0)"/>
<path d="" fill="#00DDA2" transform="translate(0,0)"/>
<path d="" fill="#00DDA2" transform="translate(0,0)"/>
<path d="" fill="#06E6B6" transform="translate(0,0)"/>
<path d="" fill="#00DEA2" transform="translate(0,0)"/>
<path d="" fill="#00DC9F" transform="translate(0,0)"/>
<path d="" fill="#07E7BB" transform="translate(0,0)"/>
<path d="" fill="#00DCA0" transform="translate(0,0)"/>
<path d="" fill="#02E1AB" transform="translate(0,0)"/>
<path d="" fill="#00DC9D" transform="translate(0,0)"/>
<path d="" fill="#01E0AA" transform="translate(0,0)"/>
<path d="" fill="#00DA9A" transform="translate(0,0)"/>
<path d="" fill="#00C970" transform="translate(0,0)"/>
<path d="" fill="#00D68F" transform="translate(0,0)"/>
<path d="" fill="#05E5B7" transform="translate(0,0)"/>
<path d="" fill="#00DB9B" transform="translate(0,0)"/>
<path d="" fill="#00D485" transform="translate(0,0)"/>
<path d="" fill="#00D68C" transform="translate(0,0)"/>
<path d="" fill="#02E0A9" transform="translate(0,0)"/>
<path d="" fill="#00C76D" transform="translate(0,0)"/>
<path d="" fill="#01D998" transform="translate(0,0)"/>
<path d="" fill="#00C254" transform="translate(0,0)"/>
<path d="" fill="#00D07D" transform="translate(0,0)"/>
<path d="" fill="#00D792" transform="translate(0,0)"/>
<path d="" fill="#00D58D" transform="translate(0,0)"/>
<path d="" fill="#00D384" transform="translate(0,0)"/>
<path d="" fill="#00D792" transform="translate(0,0)"/>
<path d="" fill="#00E3AF" transform="translate(0,0)"/>
<path d="" fill="#00D58A" transform="translate(0,0)"/>
<path d="" fill="#00D68E" transform="translate(0,0)"/>
<path d="" fill="#00D58A" transform="translate(0,0)"/>
<path d="" fill="#00D387" transform="translate(0,0)"/>
<path d="" fill="#00D58A" transform="translate(0,0)"/>
<path d="" fill="#00D386" transform="translate(0,0)"/>
<path d="" fill="#01DDA0" transform="translate(0,0)"/>
<path d="" fill="#00D58A" transform="translate(0,0)"/>
<path d="" fill="#00D88E" transform="translate(0,0)"/>
<path d="" fill="#00D07F" transform="translate(0,0)"/>
<path d="" fill="#00E0A8" transform="translate(0,0)"/>
<path d="" fill="#00D383" transform="translate(0,0)"/>
<path d="" fill="#01D790" transform="translate(0,0)"/>
<path d="" fill="#00CE79" transform="translate(0,0)"/>
<path d="" fill="#01E0AC" transform="translate(0,0)"/>
<path d="" fill="#02E2AD" transform="translate(0,0)"/>
<path d="" fill="#00CE79" transform="translate(0,0)"/>
<path d="" fill="#00D892" transform="translate(0,0)"/>
<path d="" fill="#00CE79" transform="translate(0,0)"/>
<path d="" fill="#04E5B7" transform="translate(0,0)"/>
<path d="" fill="#01E2AD" transform="translate(0,0)"/>
<path d="" fill="#00CA6D" transform="translate(0,0)"/>
<path d="" fill="#00DA97" transform="translate(0,0)"/>
<path d="" fill="#02E1AC" transform="translate(0,0)"/>
<path d="" fill="#01E1AA" transform="translate(0,0)"/>
<path d="" fill="#00DEA3" transform="translate(0,0)"/>
<path d="" fill="#00DD9C" transform="translate(0,0)"/>
<path d="" fill="#00E2AC" transform="translate(0,0)"/>
<path d="" fill="#00DD9F" transform="translate(0,0)"/>
<path d="" fill="#01DD9E" transform="translate(0,0)"/>
<path d="" fill="#0AE6BE" transform="translate(0,0)"/>
<path d="" fill="#00DC9D" transform="translate(0,0)"/>
<path d="" fill="#00DD9E" transform="translate(0,0)"/>
<path d="" fill="#00E0A3" transform="translate(0,0)"/>
<path d="" fill="#00E0A3" transform="translate(0,0)"/>
<path d="" fill="#01D283" transform="translate(0,0)"/>
<path d="" fill="#00DFA5" transform="translate(0,0)"/>
<path d="" fill="#01E6B9" transform="translate(0,0)"/>
<path d="" fill="#00DFA7" transform="translate(0,0)"/>
<path d="" fill="#00D78F" transform="translate(0,0)"/>
<path d="" fill="#01E3B2" transform="translate(0,0)"/>
<path d="" fill="#00E5B5" transform="translate(0,0)"/>
<path d="" fill="#00E0AA" transform="translate(0,0)"/>
<path d="" fill="#00C360" transform="translate(0,0)"/>
<path d="" fill="#01E0AC" transform="translate(0,0)"/>
<path d="" fill="#00E5B4" transform="translate(0,0)"/>
<path d="" fill="#00E1AB" transform="translate(0,0)"/>
<path d="" fill="#00BF47" transform="translate(0,0)"/>
<path d="" fill="#01DFA5" transform="translate(0,0)"/>
<path d="" fill="#04DDA2" transform="translate(0,0)"/>
<path d="" fill="#00DC9C" transform="translate(0,0)"/>
<path d="" fill="#00DDA0" transform="translate(0,0)"/>
<path d="" fill="#01DFA5" transform="translate(0,0)"/>
<path d="" fill="#00E1AE" transform="translate(0,0)"/>
<path d="" fill="#01E2AF" transform="translate(0,0)"/>
<path d="" fill="#00CC6D" transform="translate(0,0)"/>
<path d="" fill="#02D997" transform="translate(0,0)"/>
<path d="" fill="#00DDA2" transform="translate(0,0)"/>
<path d="" fill="#03D385" transform="translate(0,0)"/>
<path d="" fill="#07CF78" transform="translate(0,0)"/>
<path d="" fill="#00D891" transform="translate(0,0)"/>
<path d="" fill="#00C259" transform="translate(0,0)"/>
<path d="" fill="#00D180" transform="translate(0,0)"/>
<path d="" fill="#01E5B6" transform="translate(0,0)"/>
<path d="" fill="#00D488" transform="translate(0,0)"/>
<path d="" fill="#00E4B6" transform="translate(0,0)"/>
<path d="" fill="#00D993" transform="translate(0,0)"/>
<path d="" fill="#02E1AC" transform="translate(0,0)"/>
<path d="" fill="#03D78B" transform="translate(0,0)"/>
<path d="" fill="#00E2AD" transform="translate(0,0)"/>
<path d="" fill="#00BE3F" transform="translate(0,0)"/>
<path d="" fill="#00CA6A" transform="translate(0,0)"/>
<path d="" fill="#00CD75" transform="translate(0,0)"/>
<path d="" fill="#00C859" transform="translate(0,0)"/>
<path d="" fill="#00D37E" transform="translate(0,0)"/>
<path d="" fill="#00C355" transform="translate(0,0)"/>
<path d="" fill="#00DB96" transform="translate(0,0)"/>
<path d="" fill="#01DEA2" transform="translate(0,0)"/>
<path d="" fill="#00DA96" transform="translate(0,0)"/>
<path d="" fill="#00DFA6" transform="translate(0,0)"/>
<path d="" fill="#00E1A9" transform="translate(0,0)"/>
<path d="" fill="#00D072" transform="translate(0,0)"/>
<path d="" fill="#00E2AB" transform="translate(0,0)"/>
<path d="" fill="#00C859" transform="translate(0,0)"/>
<path d="" fill="#02E4B2" transform="translate(0,0)"/>
<path d="" fill="#00DA95" transform="translate(0,0)"/>
<path d="" fill="#00D790" transform="translate(0,0)"/>
<path d="" fill="#00CD72" transform="translate(0,0)"/>
<path d="" fill="#00DA95" transform="translate(0,0)"/>
<path d="" fill="#00D282" transform="translate(0,0)"/>
<path d="" fill="#00D78E" transform="translate(0,0)"/>
<path d="" fill="#00E2AC" transform="translate(0,0)"/>
<path d="" fill="#00E1AD" transform="translate(0,0)"/>
<path d="" fill="#03E2AE" transform="translate(0,0)"/>
<path d="" fill="#00D994" transform="translate(0,0)"/>
<path d="" fill="#00DC9C" transform="translate(0,0)"/>
<path d="" fill="#00E5B4" transform="translate(0,0)"/>
<path d="" fill="#00D890" transform="translate(0,0)"/>
<path d="" fill="#01DFA6" transform="translate(0,0)"/>
<path d="" fill="#00E0A6" transform="translate(0,0)"/>
<path d="" fill="#00E0AA" transform="translate(0,0)"/>
<path d="" fill="#01E1A8" transform="translate(0,0)"/>
<path d="" fill="#00DD9F" transform="translate(0,0)"/>
<path d="" fill="#00DB9A" transform="translate(0,0)"/>
<path d="" fill="#00DEA3" transform="translate(0,0)"/>
<path d="" fill="#00DC9E" transform="translate(0,0)"/>
<path d="" fill="#00DFA4" transform="translate(0,0)"/>
<path d="" fill="#00DC9E" transform="translate(0,0)"/>
<path d="" fill="#00DD9F" transform="translate(0,0)"/>
<path d="" fill="#00DB99" transform="translate(0,0)"/>
<path d="" fill="#01E0A7" transform="translate(0,0)"/>
<path d="" fill="#00DFA4" transform="translate(0,0)"/>
</svg>
